<mxfile host="app.diagrams.net" modified="2024-05-23T17:16:52.656Z" agent="Mozilla/5.0 (Macintosh; Intel Mac OS X 10_15_7) AppleWebKit/605.1.15 (KHTML, like Gecko) Version/17.5 Safari/605.1.15" version="24.4.6" etag="r71YSb6a1g2xCOcyu0H3" type="github">
  <diagram name="Page-1" id="j9oZwEzmCDsiuuB2Z9or">
    <mxGraphModel>
      <root>
        <mxCell id="0" />
        <mxCell id="1" parent="0" />
      </root>
    </mxGraphModel>
  </diagram>
</mxfile>
